# xmcd CD database file
#
# Track frame offsets:
#	150
#	16456
#	33702
#	45321
#	60295
#	75858
#	94807
#	109994
#	121545
#	137741
#
# Disc length: 2097 seconds
#
# Revision: 2
# Processed by: cddbd v1.5.2PL0 Copyright (c) Steve Scherf et al.
# Submitted via: CDex 2.21
#
DISCID=70082f0a
DTITLE=Tanya Tucker - While i'm livin'
DYEAR=2019
DGENRE=Country
TTITLE0=Mustang Ridge
TTITLE1=The Wheels Of Laredo
TTITLE2=I Don't Owe You Anything
TTITLE3=The Day My Heart Goes Still
TTITLE4=High Ridin' Heroes
TTITLE5=The House That Built Me
TTITLE6=Hard Luck
TTITLE7=Rich
TTITLE8=Seminole Wind Calling
TTITLE9=Bring My Flowers Now
EXTD=YEAR: 2019
EXTT0=
EXTT1=
EXTT2=
EXTT3=
EXTT4=
EXTT5=
EXTT6=
EXTT7=
EXTT8=
EXTT9=
PLAYORDER=
